General
      Complete name : 20000.Leagues.Under.the.Sea.1954.DVDRip.H264.AAC.5.1ch.Gopo.mp4
      Format : MPEG-4
      Format profile : Base Media
      Codec ID : isom
      File size : 1.37 GiB
      Duration : 2h 1mn
      Overall bit rate : 1 614 Kbps
      Encoded date : UTC 2010-03-07 01:20:30
      Tagged date : UTC 2010-03-07 01:20:30
   Video #1
      ID : 1
      Format : AVC
      Format/Info : Advanced Video Codec
      Format profile : High@L4.1
      Format settings, CABAC : Yes
      Format settings, ReFrames : 6 frames
      Codec ID : avc1
      Codec ID/Info : Advanced Video Coding
      Duration : 2h 1mn
      Bit rate mode : Variable
      Bit rate : 1 313 Kbps
      Maximum bit rate : 8 710 Kbps
      Width : 720 pixels
      Height : 272 pixels
      Display aspect ratio : 2.647
      Frame rate mode : Constant
      Frame rate : 25.000 fps
      Resolution : 24 bits
      Colorimetry : 4:2:0
      Scan type : Progressive
      Bits/(Pixel*Frame) : 0.268
      Stream size : 1.12 GiB (81%)
      Writing library : x264 core 84 r1416 fcf70c2
      Encoding settings : cabac=1 / ref=6 / deblock=1:-3:-1 / analyse=0x3:0x133 / me=umh / subme=7 / psy=1 / psy_rd=1.0:0.1 / mixed_ref=1 / me_range=32 / chroma_me=1 / trellis=2 / 8x8dct=1 / cqm=0 / deadzone=21,11 / fast_pskip=0 / chroma_qp_offset=-3 / threads=2 / sliced_threads=0 / nr=0 / decimate=1 / mbaff=0 / constrained_intra=0 / bframes=6 / b_pyramid=2 / b_adapt=2 / b_bias=0 / direct=1 / wpredb=1 / wpredp=2 / keyint=250 / keyint_min=25 / scenecut=40 / intra_refresh=0 / rc_lookahead=40 / rc=2pass / mbtree=1 / bitrate=1313 / ratetol=1.0 / qcomp=0.60 / qpmin=10 / qpmax=51 / qpstep=4 / cplxblur=20.0 / qblur=0.5 / vbv_maxrate=40000 / vbv_bufsize=40000 / ip_ratio=1.40 / aq=1:1.00
      Encoded date : UTC 2010-03-06 15:18:48
      Tagged date : UTC 2010-03-07 01:23:25
   Audio #2
      ID : 2
      Format : AAC
      Format/Info : Advanced Audio Codec
      Format version : Version 4
      Format profile : LC
      Format settings, SBR : No
      Codec ID : 40
      Duration : 2h 1mn
      Bit rate mode : Variable
      Bit rate : 297 Kbps
      Maximum bit rate : 348 Kbps
      Channel(s) : 6 channels
      Channel positions : Front: L C R, Rear: L R, LFE
      Sampling rate : 48.0 KHz
      Resolution : 16 bits
      Stream size : 259 MiB (18%)
      Encoded date : UTC 2010-03-07 01:22:51
      Tagged date : UTC 2010-03-07 01:23:25
	Sample : YES
	Subtitle : English,Romanian

PLOT

A ship sent to investigate a wave of mysterious sinkings encounters the advanced submarine, the Nautilus, commanded by Captain Nemo.
Director: Richard Fleischer
CASTING 
     
	Kirk Douglas	... 	Ned Land
	James Mason	... 	Captain Nemo
	Paul Lukas	... 	Prof. Pierre Aronnax
	Peter Lorre	... 	Conseil
	Robert J. Wilke	... 	First Mate of the Nautilus
	Ted de Corsia	... 	Capt. Farragut
	Carleton Young	... 	John Howard
	J.M. Kerrigan	... 	Old Billy
	Percy Helton	... 	Coach Driver
	Ted Cooper	... 	Mate on 'Lincoln'

SOURCE: 20000 Leagues Under the Sea (1954) [DVD5 - Eng Ita - MultiSub]

Notes: For best performance I suggest you to use KMPlayer(find it with google) for playback
These movies were made especially for PC and they don't play on a PS3.If you want to re-encode for PS3 or test for other devices be my guests.